<svg id="instagram" xmlns="http://www.w3.org/2000/svg" viewBox="0 0 200 200"><defs><style>.cls-1{fill:#fff;}</style></defs><title>Instagram</title><path class="cls-1" d="M100,32.18c22.09,0,24.7.08,33.43.48,8.07.37,12.45,1.72,15.36,2.85a27.4,27.4,0,0,1,15.7,15.7c1.13,2.91,2.48,7.29,2.85,15.36.4,8.72.48,11.34.48,33.43s-.08,24.7-.48,33.43c-.37,8.07-1.72,12.45-2.85,15.36a27.39,27.39,0,0,1-15.7,15.7c-2.91,1.13-7.29,2.48-15.36,2.85-8.72.4-11.34.48-33.43.48s-24.71-.08-33.43-.48c-8.07-.37-12.45-1.72-15.36-2.85a27.4,27.4,0,0,1-15.7-15.7c-1.13-2.91-2.48-7.29-2.85-15.36-.4-8.72-.48-11.34-.48-33.43s.08-24.7.48-33.43c.37-8.07,1.72-12.45,2.85-15.36a27.4,27.4,0,0,1,15.7-15.7c2.91-1.13,7.29-2.48,15.36-2.85,8.72-.4,11.34-.48,33.43-.48m0-14.9c-22.47,0-25.28.1-34.11.5s-14.82,1.8-20.08,3.85a42.31,42.31,0,0,0-24.2,24.19c-2,5.26-3.44,11.28-3.84,20.08s-.5,11.64-.5,34.11.1,25.28.5,34.11,1.8,14.82,3.85,20.08a42.3,42.3,0,0,0,24.19,24.19c5.26,2,11.28,3.44,20.08,3.85s11.64.5,34.11.5,25.28-.1,34.11-.5,14.82-1.8,20.08-3.85a42.3,42.3,0,0,0,24.19-24.19c2-5.26,3.44-11.28,3.85-20.08s.5-11.64.5-34.11-.1-25.28-.5-34.11-1.8-14.82-3.85-20.08a42.31,42.31,0,0,0-24.19-24.19c-5.26-2-11.28-3.44-20.08-3.84s-11.64-.5-34.11-.5h0Z"/><path class="cls-1" d="M100,57.52A42.48,42.48,0,1,0,142.48,100h0A42.48,42.48,0,0,0,100,57.52Zm0,70.05A27.57,27.57,0,1,1,127.57,100,27.57,27.57,0,0,1,100,127.57Z"/><circle class="cls-1" cx="144.16" cy="55.84" r="9.93"/></svg>