<svg xmlns="http://www.w3.org/2000/svg" xmlns:xlink="http://www.w3.org/1999/xlink" version="1.1" x="0px" y="0px" viewBox="10 -10 80 125" style="color:white;" xml:space="preserve"><path fill="white" d="M51.5,26.5h-2.9c-0.7,0-1.3-0.6-1.3-1.3c0-0.7,0.6-1.3,1.3-1.3h2.9c0.7,0,1.3,0.6,1.3,1.3C52.8,25.9,52.2,26.5,51.5,26.5z   M68.9,36v47c0,2.4-1.8,5.2-6.8,5.2H37.9c-5,0-6.8-2.8-6.8-5.2V36c0-5,4.6-7.6,8.3-9.7c1.7-1,3.3-1.9,3.8-2.7  c0.4-0.6,0.7-2.3,0.8-3.8c-1.6-0.4-2-1.2-2-1.9v-3.6c0-1.4,1.4-2.5,3.4-2.5h9.2c1.9,0,3.4,1.1,3.4,2.5V18c0,0.7-0.4,1.5-2,1.9  c0.1,1.5,0.4,3.2,0.8,3.8h0c0.6,0.8,2.1,1.7,3.8,2.6C64.3,28.3,68.9,30.9,68.9,36z M44.7,17.3c0.3,0.1,0.6,0.1,0.9,0.1c0,0,0,0,0,0  h9c0,0,0,0,0,0c0.3,0,0.6-0.1,0.9-0.1v-2.7c-0.1-0.1-0.4-0.1-0.8-0.1h-9.2c-0.3,0-0.6,0.1-0.8,0.1V17.3z M33.7,36v41.4h3.6V40.8  c0-5.3,9.6-6.5,12.9-6.5c4.1,0,12.4,1.6,12.4,6.5v36.5h3.6V36c0-3.5-3.7-5.6-7-7.4c-2-1.1-3.8-2.1-4.7-3.4c-0.8-1.2-1.1-3.5-1.2-5  h-6.7c-0.1,1.5-0.4,3.9-1.3,5.1c-0.9,1.3-2.7,2.3-4.7,3.4C37.4,30.4,33.7,32.5,33.7,36z M60.1,77.4V61.6H39.9v15.8H60.1z M39.9,59  h20.2v-5H39.9V59z M45.6,51.4h8.9c0.9-1.1,1.4-2.4,1.4-3.8c0-1.6-0.6-3-1.7-4.1c-1.1-1.1-2.6-1.7-4.1-1.7c-1.6,0-3,0.6-4.1,1.7  c-1.1,1.1-1.7,2.6-1.7,4.1C44.2,49,44.7,50.3,45.6,51.4z M60.1,40.8c0-2.3-5.9-3.9-9.8-3.9c-4.2,0-10.3,1.5-10.3,3.9v10.6h2.5  c-0.6-1.2-0.9-2.4-0.9-3.8c0-2.3,0.9-4.4,2.5-6c1.6-1.6,3.7-2.5,6-2.5c2.3,0,4.4,0.9,6,2.5c1.6,1.6,2.5,3.7,2.5,6  c0,1.3-0.3,2.6-0.9,3.8h2.5V40.8z M66.3,82.9v-3H33.7v3c0,1.6,1.6,2.6,4.2,2.6h24.1C64.7,85.5,66.3,84.5,66.3,82.9z M56.5,67H43.5  c-0.7,0-1.3,0.6-1.3,1.3c0,0.7,0.6,1.3,1.3,1.3h13.1c0.7,0,1.3-0.6,1.3-1.3C57.8,67.6,57.3,67,56.5,67z M52.2,72.8h-4.4  c-0.7,0-1.3,0.6-1.3,1.3c0,0.7,0.6,1.3,1.3,1.3h4.4c0.7,0,1.3-0.6,1.3-1.3C53.5,73.4,52.9,72.8,52.2,72.8z"/></svg>